<?xml version="1.0" encoding="utf-8"?>
<!-- Generator: Adobe Illustrator 21.0.2, SVG Export Plug-In . SVG Version: 6.00 Build 0)  -->
<svg version="1.1" id="Capa_1" xmlns="http://www.w3.org/2000/svg" xmlns:xlink="http://www.w3.org/1999/xlink" x="0px" y="0px"
	 viewBox="0 0 180 68" style="enable-background:new 0 0 180 68;" xml:space="preserve">
<style type="text/css">
	.st0{clip-path:url(#SVGID_2_);}
	.st1{fill:#010002;}
</style>
<g>
	<defs>
		<rect id="SVGID_1_" width="180" height="68"/>
	</defs>
	<clipPath id="SVGID_2_">
		<use xlink:href="#SVGID_1_"  style="overflow:visible;"/>
	</clipPath>
	<g class="st0">
		<g>
			<circle class="st1" cx="84.6" cy="10" r="5.3"/>
			<path class="st1" d="M101,59.5l-1.1-2.6l0.5-0.2l-0.2-0.6c-2-6-4.1-13-5.5-17.9c0.4,0.7,0.8,1.4,1.2,2.1c0.5,0.8,1.3-0.6,0.9-1.2
				c-0.6-1-1.2-2-1.7-3.1c0.1,0,0.1,0,0.2,0c0.7,0.2,1,0.5,1.3,1.1c0.1,0.2,0.2,0.3,0.5,0.3c0.4,0,0.8-0.1,1-0.4
				c0.1-0.2,0.2-0.3,0.2-0.5c0-0.1,0-0.1,0-0.2v-0.1c0.2-0.3,0.3-0.7,0.2-1S98,34.8,97.7,35c-0.2,0.2-0.3,0.4-0.4,0.6
				c-0.3-0.5-0.6-0.8-1.2-1.1c-0.6-0.2-1.2-0.3-1.8-0.6c-0.2-0.1-0.3-0.1-0.4,0c-0.1,0-0.3,0.1-0.4,0.2c-0.1-1.2-0.3-2.3-0.4-3.5
				c1.9-1.1,3.9-2.5,5.8-4.1c0.8-0.6,1.2-1.6,1.2-2.7c0-1.2-0.4-2.4-1.2-3.1c-3-2.8-6.7-3.7-10.5-4.7l-0.3-0.1
				c-0.1,0-0.2-0.1-0.3-0.1c-0.9,0-2.1,1.4-2.8,2.5c-0.7-1-1.5-2-2.3-2c-0.2,0-0.3,0-0.5,0.1c-0.6,0.4-1.2,0.2-1.6,0.8L69,12.5v2.2
				l-2.8-1.1c-1.2-0.3-2.4,0.5-2.7,1.7s0.5,2.4,1.7,2.7l3.7,1.3v2.1l11,4.4c0.5,3.2,0.9,6.5,1.3,9.9c-3.7,0.9-7.3,2.4-10.7,4.4
				c-1,0.6-1.7,1.5-1.8,2.6c-0.1,0.3-0.2,0.7-0.2,1L67,56.1l1,0.2l-0.4,2.6c-0.3,1.6,0.8,3,2.3,3.3c1.6,0.3,3-0.8,3.3-2.3l0.4-2.5
				l1,0.2L76,46c3.4-1.7,8.7-4,9.9-4.5c0.5,0.1,1.1,0.1,1.7,0L93.8,59l0.7-0.3l1,2.5c0.6,1.5,2.3,2.2,3.7,1.6
				C100.9,62.6,101.6,61,101,59.5z M81.2,25.4l-0.1-0.5l-10.9-4.4v-5.6l11,4.4l0.2-0.3c0.3-0.5,0.8-0.9,1.3-1.2
				c0.4,0.2,1.1,1.2,1.7,2.2l0.5,0.9l0.5-0.9c0.8-1.3,1.9-2.6,2.3-2.7l0.3,0.1c3.7,0.9,7.2,1.7,10,4.4c0.5,0.5,0.8,1.3,0.8,2.2
				c0,0.7-0.3,1.4-0.8,1.7c-1.8,1.5-3.5,2.7-5.3,3.7l-1.3-5.6l-1.2,0.3l0.2,0.7L87,26.2c-1.2,0.5-1.7,1.8-1.2,2.9
				c0.5,1.2,1.8,1.7,2.9,1.2l2.8-0.9l0.2,1c0.2,1.3,0.3,2.6,0.4,3.9h-10C82,31.3,81.6,28.3,81.2,25.4z M88.5,40.5L88,40.6
				c-0.7,0.1-1.3,0.1-1.9,0h-0.2l-0.2,0.1c-0.7,0.3-6.9,2.8-10.4,4.7L75,45.6l-1.3,10.9l-5.2-1l1.4-11.2c0-0.3,0.1-0.5,0.2-0.8v-0.2
				c0.1-0.7,0.5-1.3,1.2-1.7c3.5-2.1,7.2-3.5,10.9-4.4l0.5-0.1l-0.1-0.5v-0.1h10.2c1.3,4.5,3.7,12.7,6,19.7l-4.2,1.7
				C94.7,57.8,88.5,40.5,88.5,40.5z"/>
		</g>
	</g>
	<g class="st0">
		<g>
			<path class="st1" d="M162.6,34.6c0,0,0-0.1-0.1-0.1l-8-15.8l-1,0.5l-1.1-2.2c-0.6-1.3-2.2-1.8-3.4-1.1c-1.3,0.6-1.8,2.2-1.1,3.4
				l1.1,2.1l-0.7,0.4l3.8,7.5h-11.5c-0.5,0-1,0.1-1.5,0.2c-4.1-5.5-8.8-10.8-14.2-16.2l-0.4-0.5l-0.8,0.8l-1.8-1.6
				c-1-0.9-2.7-0.8-3.6,0.2c-0.9,1.1-0.8,2.7,0.2,3.6l1.6,1.4l-1,1l0.4,0.4c6.1,6.1,11,11.8,15,17.4c0.1,0.1,0.2,0.2,0.3,0.4
				c0,0.2,0.1,0.4,0.1,0.6c0,0.1,0,0.3,0,0.4v21.2h1.4v2c0,1.4,1.1,2.5,2.5,2.5s2.5-1.1,2.5-2.5v-2h1.1V43.8c0,0,0.1,0,0.1,0.1V44
				c0.1,0.4,0.2,0.7,0.3,1.1c0.3,1,1.4,1.6,2.3,1.3c1-0.3,1.6-1.3,1.3-2.3V44c0.6,0.3,1.1,0.7,1.5,1.2c1.6,1.8,4.3-0.8,2.7-2.7
				c-0.4-0.4-0.8-0.8-1.3-1.2h6.7c0.6,0,1.1-0.1,1.7-0.2l0.8,1.7l-0.8-0.2l-0.2,0.7l-2.1-0.7c-1.3-0.5-2.8,0.2-3.2,1.6
				c-0.5,1.3,0.2,2.8,1.6,3.2l2.2,0.8l-0.3,1.1l8.2,2.5c1.3,0.4,2.7,0,3.6-1c0.9-1,1.1-2.5,0.5-3.7L162.6,34.6z M141.4,57.4h-5v-20
				c0-0.1,0-0.3,0-0.4v-0.1v-0.1c-0.1-0.2-0.1-0.5-0.1-0.8v-0.2l-0.2-0.2c-0.1-0.1-0.2-0.2-0.3-0.4c-4-5.5-8.8-11.1-14.7-17.1
				l3.6-3.6c5.3,5.4,9.8,10.6,13.9,16l0.3,0.4l0,0c0,0.2,0,0.5,0,0.8c0.7,2.7,1.4,5.5,2.1,8.2c0.1,0.3,0.2,0.6,0.4,0.8
				C141.4,40.7,141.4,57.4,141.4,57.4z M142.6,43.7L142.6,43.7C142.6,43.7,142.7,43.7,142.6,43.7C142.7,43.7,142.6,43.7,142.6,43.7z
				 M166.8,49.8c-0.6,0.6-1.5,0.9-2.3,0.7l-7-2.1l1.3-4.2l2.3,0.7l-2.4-5.3l-0.6,0.2c-0.6,0.2-1.2,0.3-1.8,0.3h-8.8
				c-1-0.5-1.9-0.9-2.9-1.4c-0.1,0-0.1-0.1-0.2-0.1c-0.7-2.6-1.3-5.2-2-7.8v-0.1h11.8l-4.1-8.2l3.9-2l7.4,14.7v0.1l5.7,12.3
				C167.5,48.2,167.4,49.2,166.8,49.8z"/>
			<circle class="st1" cx="168" cy="30.3" r="5.6"/>
		</g>
	</g>
	<g class="st0">
		<g>
			<path class="st1" d="M44,12.3c-1-1-2.7-1-3.8,0l-2,2l-0.6-0.6l-0.9,0.9l0,0l-5.8,5.5l-7.7-4.2c-1-0.6-2.1-0.9-3.4-1
				c-1.8,0-3.8,0.9-5.1,2.4c-1.1,1.2-1.6,2.7-1.4,4.2l1.6,13.3c-0.4-0.3-0.9-0.5-1.3-0.8c-1.3-0.7-2.8-0.8-4.2-0.3
				c-0.8,0.3-1.5,1-1.6,1.9c-0.1,0.7,0.5,1.4,1.3,1.1c1.1-0.4,2.1-0.1,3.1,0.4c-0.1,0-0.3,0.1-0.4,0.1c-0.8,0.2-1.5,1-1.6,1.9
				c-0.1,0.8,0.5,1.3,1.3,1.1c1.3-0.4,2.5-0.9,3.7-1.5l1.1,8.7l-6.6,7.7l0,0l-1.4,1.5l1,0.9l-1.8,1.6c-1.1,1-1.2,2.7-0.2,3.8
				s2.7,1.2,3.8,0.2l2.2-2l1.2,1.1l1.4-1.5l0,0c0.7-0.8,1.5-1.6,2.3-2.5c2.2-2.4,4.6-4.8,6.1-7.5c1-1.7,0.5-4.2,0.1-6.2v-0.1
				c2.9,3.2,4.1,7,3.8,11.6l0,0L28,58.1l1.7,0.2v2.9c0,1.5,1.2,2.7,2.7,2.7s2.7-1.2,2.7-2.7v-2.4l1.3,0.1l0.2-2.1h-0.1
				c0.8-7.8-1.9-14.6-8.1-20.2c0-0.2,0-0.5,0-0.7v-0.3h6h0.9h0.3v-0.7h2.9c1.5,0,2.7-1.2,2.7-2.7s-1.2-2.7-2.7-2.7h-2.9v-0.6h-0.3
				h-0.9h-6.8l-0.4-3.2l2.9,1.6c0.5,0.3,1.1,0.4,1.7,0.4c0.9,0,1.8-0.3,2.4-1l7.7-7.3l0,0l0.9-0.9L42.3,18l2-2
				C45,15,45,13.4,44,12.3z M34.1,30.2V34h-5.2l-0.6-3.8H34.1z M27.4,37.7c5.7,5.2,8.2,11.5,7.5,18.8L29.5,56
				c0.4-5.7-1.5-10.4-5.7-14.2l-1.4-1.2l0.3,2.5c0.1,0.5,0.2,1.1,0.3,1.6c0.3,1.8,0.8,4,0,5.3c-1.5,2.6-3.8,4.9-5.9,7.3
				c-0.8,0.8-1.6,1.6-2.3,2.5l-4-3.8l7-8.3l-1.2-9.1c0.1,0,0.2-0.1,0.2-0.1c1.2,0,2.3,0,3.5,0c0.1,0,0.1,0,0.2,0c1.9,0,3.7,0,5.6,0
				C26.6,38.4,27.1,38.1,27.4,37.7z M33,25.7c-0.7,0.7-1.7,0.8-2.5,0.3l-5.2-2.9l1.5,12.2c-1.7,0-3.4,0-5.2,0c-0.1,0-0.1,0-0.2,0
				c-1.6,0-3.3,0-4.9,0c-0.1,0-0.1,0-0.2,0c0-0.1,0-0.2,0-0.3v-0.1l-1.6-13.6c-0.2-1.4,0.5-2.4,1.1-3.1c1.1-1.2,2.7-1.9,4.1-1.9
				c1,0,1.9,0.3,2.7,0.8l8.6,4.7l6.6-6.2l2.9,2.9L33,25.7z"/>
			<circle class="st1" cx="22.3" cy="9.7" r="5.1"/>
		</g>
	</g>
</g>
</svg>
